<?xml version="1.0" encoding="UTF-8" standalone="no"?>
<!-- Created with Inkscape (http://www.inkscape.org/) -->

<svg
   width="111.23785mm"
   height="54.398499mm"
   viewBox="0 0 111.23785 54.398499"
   version="1.1"
   id="svg2314"
   inkscape:version="1.2.2 (b0a8486541, 2022-12-01)"
   sodipodi:docname="logo-color2.svg"
   inkscape:export-filename="logo-color2.png"
   inkscape:export-xdpi="300"
   inkscape:export-ydpi="300"
   xml:space="preserve"
   xmlns:inkscape="http://www.inkscape.org/namespaces/inkscape"
   xmlns:sodipodi="http://sodipodi.sourceforge.net/DTD/sodipodi-0.dtd"
   xmlns="http://www.w3.org/2000/svg"
   xmlns:svg="http://www.w3.org/2000/svg"><sodipodi:namedview
     id="namedview2316"
     pagecolor="#ffffff"
     bordercolor="#666666"
     borderopacity="1.0"
     inkscape:showpageshadow="2"
     inkscape:pageopacity="0.0"
     inkscape:pagecheckerboard="0"
     inkscape:deskcolor="#d1d1d1"
     inkscape:document-units="mm"
     showgrid="false"
     inkscape:zoom="0.87125421"
     inkscape:cx="-173.31337"
     inkscape:cy="297.84648"
     inkscape:window-width="1920"
     inkscape:window-height="1136"
     inkscape:window-x="3840"
     inkscape:window-y="40"
     inkscape:window-maximized="1"
     inkscape:current-layer="layer1" /><defs
     id="defs2311" /><g
     inkscape:label="Calque 1"
     inkscape:groupmode="layer"
     id="layer1"
     transform="translate(-55.480231,-70.202612)"><g
       id="g745"><text
         xml:space="preserve"
         style="font-style:normal;font-weight:normal;font-size:28.3271px;line-height:1.25;font-family:sans-serif;fill:#ea471a;fill-opacity:1;stroke:none;stroke-width:0.708178"
         x="94.233536"
         y="100.87003"
         id="text13002-3-3"><tspan
           x="94.233536"
           y="100.87003"
           style="font-style:normal;font-variant:normal;font-weight:normal;font-stretch:normal;font-family:Acme;-inkscape-font-specification:Acme;fill:#ea471a;fill-opacity:1;stroke-width:0.708178"
           sodipodi:role="line"
           id="tspan1114-5-5">Story</tspan></text><text
         xml:space="preserve"
         style="font-style:normal;font-weight:normal;font-size:17.1548px;line-height:1.25;font-family:sans-serif;fill:#ea471a;fill-opacity:1;stroke:none;stroke-width:0.428871"
         x="119.69859"
         y="82.210983"
         id="text13002-3"><tspan
           x="119.69859"
           y="82.210983"
           style="font-style:normal;font-variant:normal;font-weight:normal;font-stretch:normal;font-family:Acme;-inkscape-font-specification:Acme;fill:#ea471a;fill-opacity:1;stroke-width:0.428871"
           sodipodi:role="line"
           id="tspan1114-5">Open</tspan></text><text
         xml:space="preserve"
         style="font-style:normal;font-weight:normal;font-size:27.3063px;line-height:1.25;font-family:sans-serif;fill:#ea471a;fill-opacity:1;stroke:none;stroke-width:0.682659"
         x="105.68847"
         y="124.30074"
         id="text13002-3-6"><tspan
           x="105.68847"
           y="124.30074"
           style="font-style:normal;font-variant:normal;font-weight:normal;font-stretch:normal;font-family:Acme;-inkscape-font-specification:Acme;fill:#ea471a;fill-opacity:1;stroke-width:0.682659"
           sodipodi:role="line"
           id="tspan1114-5-2">Teller</tspan></text><path
         style="fill:#6dbfb2;fill-opacity:1;stroke-width:0.181968"
         d="m 91.113007,82.689678 -1.15737,3.27619 -0.614526,1.378529 -0.180092,1.52545 -0.180109,1.525453 0.293618,1.7947 0.293611,1.794698 0.333624,1.061487 0.333634,1.061508 0.199012,0.137544 0.19903,0.137565 -0.09704,0.282863 -0.09707,0.28285 -1.261583,1.152668 -1.26161,1.152642 -1.241589,0.898075 -1.241618,0.89806 -1.081374,0.57209 -1.081378,0.57209 H 83.055373 82.84055 l 0.593413,-0.92369 0.593407,-0.92366 0.503992,-1.433555 0.503996,-1.433561 0.646174,-1.891609 0.646181,-1.891583 0.669171,-0.946706 0.669158,-0.946689 H 87.558219 87.45038 l -1.659922,1.763127 -1.65993,1.763128 -1.369795,1.140944 -1.369782,1.140952 -1.039241,0.562613 -1.039233,0.562592 0.426008,-0.339736 0.426,-0.339738 1.294725,-1.148091 1.294728,-1.148067 2.457741,-2.692799 2.45777,-2.692752 0.265137,-1.066027 0.265149,-1.066046 0.265412,-0.934913 0.265411,-0.9349 3.103856,-4.291031 c 3.486859,1.141796 3.625946,-1.356667 -3.84284,-0.385847 l -2.182828,1.142439 -1.506133,0.854056 -1.36956,0.97622 -1.369549,0.976217 h -0.890402 -0.890421 l -0.590185,0.73056 -0.590222,0.730559 -0.997466,1.803239 -0.997447,1.803273 -1.175473,2.517394 -1.175451,2.517391 -0.939826,2.597759 -0.939813,2.597757 -0.963063,3.14501 -0.963078,3.14498 v 0.15785 0.15789 l 0.900639,0.6197 0.900645,0.61973 1.465376,0.43824 1.465376,0.43823 1.102114,0.22319 1.102143,0.22323 0.387842,-0.54306 0.387858,-0.54304 h 2.295647 2.295641 l 0.371573,-0.23799 0.37156,-0.23797 1.44744,-1.97494 1.447414,-1.97492 1.259607,-1.8811 1.259589,-1.88109 -0.08483,-0.0949 -0.08483,-0.0949 -1.90844,1.449 -1.9084,1.44899 -1.252577,0.67128 -1.252543,0.67127 H 82.071868 81.72424 l 0.858991,-0.51094 0.859004,-0.51093 1.376582,-1.06833 1.37659,-1.0683 1.654911,-1.39108 1.654913,-1.391079 0.620585,-0.810773 0.620602,-0.810803 0.07724,0.269338 0.07724,0.269312 0.868974,2.886415 0.868984,2.88638 0.935286,2.7902 0.935273,2.7902 2.037644,0.31019 2.037667,0.31022 1.032436,0.2307 1.032438,0.23067 1.42951,0.38836 1.42949,0.38837 1.16168,0.44186 1.16167,0.44184 0.52855,0.30562 0.52854,0.30565 0.53685,0.50518 0.53684,0.50516 v 0.7009 0.7009 l -1.0944,1.15816 -1.09439,1.15817 -1.48014,1.02839 -1.48014,1.02843 -1.92948,0.96281 -1.929474,0.96281 -2.249882,0.83511 -2.249868,0.8351 -2.064888,0.47815 -2.064906,0.47821 -2.236949,0.34621 -2.236973,0.34621 -4.559942,-0.0111 -4.559959,-0.0109 -2.495055,-0.42666 -2.495063,-0.4267 -1.548686,-0.37474 -1.548665,-0.37478 -2.150903,-0.79317 -2.150925,-0.79317 -1.866702,-0.93136 -1.866683,-0.93136 -1.68149,-1.25182 -1.681488,-1.25184 -0.88273,-1.08007 -0.882713,-1.08007 v -0.47823 -0.4782 l 0.175252,-0.36616 0.175215,-0.36618 0.746382,-0.48914 0.746347,-0.48911 1.272331,-0.48563 1.272365,-0.4856 1.37659,-0.40487 1.376598,-0.40485 3.263964,-0.61073 3.263976,-0.61072 1.596517,-4.96626 1.596512,-4.966278 0.702903,-1.852965 0.702897,-1.852983 1.074476,-2.313635 1.074462,-2.313625 1.35609,-2.40084 1.356082,-2.400834 0.46745,-0.529175 0.467442,-0.529164 h 0.924788 0.924777 l 1.712576,-1.184881 1.712579,-1.184891 1.555554,-0.82872 1.555563,-0.828689 c 1.732134,0.05052 4.036933,0.4425 3.183069,1.648299 z m -8.359069,40.758092 4.473938,-0.0686 1.806781,-0.29739 1.806774,-0.2974 1.757926,-0.39574 1.757934,-0.39572 2.46957,-0.82875 2.469594,-0.82877 1.636455,-0.80257 1.63643,-0.80257 1.32011,-0.86418 1.32011,-0.86416 v -0.0891 -0.0891 l -0.9894,0.50708 -0.98943,0.50707 -2.84929,1.10695 -2.849287,1.10697 -2.265198,0.51803 -2.26517,0.51803 -0.187999,-0.0701 -0.188003,-0.0701 1.1469,-0.92264 1.146921,-0.92267 -0.07824,-0.0875 -0.07824,-0.0875 -1.391497,0.87507 -1.39151,0.8751 -0.612364,0.28614 -0.612389,0.28615 v -0.0868 -0.0868 l 0.860369,-0.52363 0.860367,-0.52366 v -0.16576 -0.16574 l -0.681453,0.38876 -0.681434,0.38876 h -0.316574 -0.316593 l -0.163464,0.16616 -0.163486,0.16618 -0.559242,0.20865 -0.559216,0.2087 v -0.0911 -0.0911 l 1.075439,-0.76299 1.075454,-0.763 -0.134569,-0.002 -0.134591,-0.002 -0.603099,0.28181 -0.603102,0.28177 0.102555,-0.18557 0.102587,-0.1856 H 89.79078 89.666222 l -1.262202,0.7747 -1.2622,0.77467 v -0.0872 -0.0873 l 1.042519,-0.70819 1.042548,-0.70822 -0.08543,-0.0955 -0.0854,-0.0955 -0.534024,0.29793 -0.534048,0.29793 -0.595173,0.41135 -0.595153,0.41131 v -0.0918 -0.0919 l 0.866902,-0.6221 0.866925,-0.62209 -0.07908,-0.0884 -0.07908,-0.0884 -0.787855,0.51631 -0.787831,0.51632 v -0.0955 -0.0955 l 0.623956,-0.41169 0.623935,-0.41169 -0.08688,-0.0971 -0.08686,-0.0972 -0.881211,0.58106 -0.881229,0.58104 v -0.0843 -0.0843 l 0.645268,-0.50511 0.645282,-0.50511 -0.430178,0.13856 -0.430191,0.13856 -0.516229,0.39378 -0.516213,0.3938 0.430173,-0.54138 0.430184,-0.54136 -0.390713,0.22746 -0.390713,0.22744 -0.162084,-0.11201 -0.162065,-0.11202 -0.909831,0.48965 -0.909849,0.48968 0.316048,-0.24224 0.316029,-0.24223 0.286228,-0.24218 0.286206,-0.24217 -0.430173,0.0585 -0.430168,0.0584 -0.430199,0.25981 -0.430186,0.25981 0.344154,-0.44647 0.344138,-0.44649 -1.032446,0.63978 -1.032433,0.63976 0.172085,-0.18834 0.172058,-0.18835 0.496409,-0.41781 0.496416,-0.41779 H 82.615212 82.34407 l -0.106363,0.19242 -0.106336,0.19244 h -0.172095 -0.172059 l 0.100259,-0.18142 0.100282,-0.18146 -0.778428,0.48655 -0.778412,0.48651 v -0.10773 -0.1077 l 0.532238,-0.30778 0.532202,-0.30777 -0.09003,-0.1007 -0.09005,-0.10066 -1.388586,0.77719 -1.388575,0.77722 v -0.0757 -0.0756 l 1.118494,-0.69947 1.118454,-0.69946 v -0.0594 -0.0594 l -0.56329,0.14206 -0.563271,0.14207 -0.426135,0.23545 -0.426136,0.23545 0.430176,-0.3935 0.430202,-0.39349 -0.220832,-0.004 -0.220808,-0.004 -0.89766,0.48928 -0.897673,0.48926 0.344152,-0.30521 0.344135,-0.30523 0.344154,-0.27017 0.344154,-0.27016 -0.30798,-0.01 -0.308007,-0.0102 -0.681434,0.38875 -0.681445,0.38877 v -0.0952 -0.0952 l 0.532231,-0.3078 0.532201,-0.30777 -0.09401,-0.10512 -0.09401,-0.10514 -0.407765,0.11446 -0.407762,0.11443 -0.671082,0.50927 -0.671081,0.5093 0.229793,-0.30968 0.229807,-0.30961 0.613376,-0.42394 0.613391,-0.42394 -0.208058,-0.0776 -0.208057,-0.0776 -0.424673,0.30673 -0.424664,0.30692 -0.430191,0.31075 -0.430168,0.31077 v -0.0922 -0.0922 l 0.707396,-0.5482 0.707403,-0.54823 -0.190865,-0.0711 -0.190847,-0.0711 -0.64562,0.42422 -0.645591,0.42425 0.516233,-0.51854 0.516213,-0.51852 -0.344154,0.0884 -0.344154,0.0884 -0.344138,0.14391 -0.344155,0.14393 0.344155,-0.32716 0.344138,-0.32713 -0.467993,0.0811 -0.467992,0.0811 0.07373,-0.13341 0.07373,-0.1334 -0.848162,-0.21896 -0.848182,-0.21894 -1.768859,-0.98216 -1.768848,-0.98217 -0.559255,-0.38522 -0.559226,-0.38523 v -0.42924 -0.42931 l 0.500798,-1.65688 0.500827,-1.65687 -0.07315,-0.0818 -0.07323,-0.0818 -2.680732,0.44663 -2.68075,0.44664 -1.756783,0.47342 -1.756781,0.47345 -1.109313,0.42437 -1.109308,0.42436 -0.804621,0.45042 -0.80463,0.45043 -0.114014,0.40168 -0.11402,0.4017 0.434118,0.73358 0.434126,0.73358 0.742624,0.67456 0.742633,0.67457 1.239271,0.89145 1.239274,0.89143 1.341837,0.64026 1.341853,0.64023 1.376582,0.50294 1.37659,0.50293 1.720733,0.47521 1.720744,0.47522 2.150925,0.3932 2.150912,0.3932 1.462611,0.1965 1.462643,0.19646 0.688282,0.079 0.688308,0.079 z m 6.022578,-2.58789 h -0.08603 v -0.0962 -0.0962 h 0.08603 0.08605 v 0.0962 0.0962 z m -4.818049,-0.19243 h -0.08604 v -0.0962 -0.0962 h 0.08604 0.08605 v 0.0962 0.0962 z M 79.8287,120.47503 h -0.08605 v -0.0962 -0.0962 h 0.08605 0.08604 v 0.0962 0.0962 z m 3.441475,0 h -0.08604 v -0.0962 -0.0962 h 0.08604 0.08603 v 0.0962 0.0962 z m 1.872498,0 h -0.08604 l 0.106368,-0.19244 0.106331,-0.19241 h 0.08605 0.08604 l -0.106357,0.19241 -0.106336,0.19244 z m 0.708615,0 h -0.08605 v -0.0962 -0.0962 h 0.08605 0.08602 v 0.0962 0.0962 z m 0.688287,0 h -0.08604 v -0.0962 -0.0962 h 0.08604 0.08603 v 0.0962 0.0962 z m 2.732866,0 h -0.08602 l 0.106344,-0.19244 0.106323,-0.19241 h 0.08605 0.08604 l -0.106354,0.19241 -0.106339,0.19244 z m -10.906379,-0.38485 -0.344136,0.20595 v -0.0962 -0.0962 l 0.344136,-0.20599 0.344154,-0.20596 v 0.0962 0.0962 z m 1.806773,0.19241 h -0.08603 v -0.0962 -0.0962 h 0.08603 0.08605 v 0.0962 0.0962 z m 4.301853,0 h -0.08604 v -0.0962 -0.0962 h 0.08604 0.08602 v 0.0962 0.0962 z m 0.60226,-0.38485 -0.344154,0.20599 v -0.0962 -0.0962 l 0.344154,-0.20596 0.344138,-0.20596 v 0.0962 0.0962 z m -8.710035,0 h -0.08604 l 0.106362,-0.19242 0.106336,-0.19243 h 0.08605 0.08603 l -0.106357,0.19243 -0.106344,0.19242 z m -2.940534,-2.22529 -0.308566,0.13139 0.212223,-0.2391 0.212222,-0.2391 0.09634,0.10772 0.09631,0.10771 z m -1.168935,-0.46869 h -0.08603 v -0.0962 -0.0962 h 0.08603 0.08603 v 0.0962 0.0962 z m 9.830147,0.57445 3.119291,0.003 0.236165,-0.31762 0.236146,-0.31763 0.05878,-1.9949 0.05879,-1.99493 -0.198763,-1.68031 -0.19877,-1.68034 -0.147963,-0.16808 -0.147955,-0.16805 -3.314171,0.002 -3.314184,0.002 -0.230166,0.35198 -0.230151,0.35199 0.04668,3.56013 0.04667,3.56013 0.430197,0.2432 0.430173,0.2432 3.119268,0.003 z m -0.719561,-0.61859 -2.259754,0.0964 -0.11299,-1.20892 -0.112982,-1.20895 0.0024,-1.65551 0.0024,-1.65551 0.212529,-0.46069 0.212559,-0.46072 2.607228,-0.0549 2.60723,-0.0549 0.100603,0.41943 0.100557,0.41941 0.0024,2.54471 0.0024,2.54474 -0.5525,0.31951 -0.552506,0.31949 -2.259759,0.0964 z m 0.06446,-0.34071 h 1.698313 l 0.279175,-0.34499 0.279191,-0.34498 0.243477,-1.05011 0.243451,-1.05011 -0.04192,-0.0535 -0.04191,-0.0534 -0.447969,0.19045 -0.447945,0.19045 -0.09697,-0.17547 -0.09698,-0.17548 0.609301,-0.62001 0.609274,-0.62004 -0.111405,-0.39981 -0.111416,-0.39981 -0.154726,-0.11159 -0.154707,-0.11161 0.0933,-0.27327 0.09332,-0.27324 h -2.195383 -2.19538 l -0.0481,2.32969 -0.04809,2.32972 0.172911,0.5086 0.172905,0.50858 z m -1.173594,-2.35382 -0.602245,0.0515 0.286206,-0.24393 0.286223,-0.24394 0.316037,-0.22059 0.316039,-0.22061 -0.196701,-0.23028 -0.196702,-0.23028 -0.451498,0.33084 -0.451517,0.33084 0.107955,-0.31456 0.10794,-0.3146 0.423804,-0.11896 0.423799,-0.11893 0.172934,0.19336 0.172937,0.1934 -0.05645,0.55261 -0.05645,0.55261 z m 3.162287,-1.49472 h -0.06496 v -0.0726 -0.0726 l 0.301127,-0.26408 0.301133,-0.26413 -0.236162,0.33676 -0.236169,0.33676 z m -6.13695,4.02442 0.208717,0.0166 -0.0089,-1.2968 -0.0089,-1.29678 -0.07306,-0.13224 -0.07306,-0.13222 -0.556922,0.17206 -0.556903,0.17203 0.33401,-0.28244 0.334024,-0.28244 h 0.2252 0.225231 v -0.83904 -0.83909 l 0.106014,-0.86501 0.106029,-0.86503 -0.837332,-0.12435 -0.837327,-0.12434 -1.806784,-0.48794 -1.806774,-0.48795 -1.009647,-0.58588 -1.00965,-0.58591 -0.148352,0.1659 -0.148381,0.16591 -0.694087,2.65435 -0.694068,2.65439 0.108516,0.1964 0.108551,0.19638 1.097693,0.55077 1.097671,0.55075 1.248143,0.41634 1.248135,0.41633 1.806758,0.44141 1.80677,0.44138 0.208709,0.0166 z m 10.53329,-0.47341 1.363991,-0.24426 1.002035,-0.31575 1.002017,-0.31574 1.602504,-0.68376 1.602468,-0.68375 0.443119,-0.42622 0.443134,-0.42625 -0.215609,-0.75681 -0.215622,-0.75681 -0.681532,-1.97239 -0.681546,-1.97235 h -0.07991 -0.07999 l -0.466241,0.37957 -0.46623,0.37958 -2.581117,0.76113 -2.581089,0.76111 -0.516237,0.062 -0.516197,0.062 0.05536,0.67349 0.05536,0.67348 0.05937,2.40535 0.05937,2.40534 0.01418,0.11767 0.01418,0.11766 1.36399,-0.24423 z m 3.457948,-1.59868 -0.950259,0.36211 0.516234,-0.4768 0.516213,-0.4768 -0.274458,-0.007 -0.274471,-0.007 -0.312417,0.38604 -0.312391,0.38603 -0.08775,-0.0982 -0.08778,-0.0981 0.391957,-0.46655 0.391924,-0.46656 -0.06555,-0.21999 -0.06555,-0.21999 -0.512125,0.44677 -0.512104,0.44677 0.389586,-0.55855 0.38957,-0.55854 -0.08911,-0.0997 -0.08914,-0.0997 -0.386482,0.38904 -0.386487,0.38908 -0.258106,0.15586 -0.258109,0.15587 0.365664,-0.464 0.365654,-0.46399 0.213585,-0.46214 0.21362,-0.46212 -0.292148,0.12536 -0.292169,0.12537 0.372219,-0.67349 0.372192,-0.67346 H 90.13775 90.008202 l -0.357674,0.33375 -0.357706,0.33372 0.505394,-0.62236 0.505391,-0.62238 h -0.161256 -0.161245 l -0.597538,0.40734 -0.59754,0.40736 0.234903,-0.3165 0.234886,-0.31654 -0.09458,-0.10574 -0.09455,-0.10574 -0.575233,0.3144 -0.575231,0.31441 0.417658,-0.37486 0.417661,-0.3749 1.819288,-0.62455 1.819307,-0.62457 0.359876,-0.24732 0.359859,-0.24738 0.457489,1.81117 0.457464,1.81115 v 0.57538 0.57538 l -0.899488,0.50973 -0.89953,0.50973 -0.950296,0.36209 z m 14.192239,1.89621 h 0.0861 v -0.0962 -0.0962 h -0.0861 -0.086 v 0.0962 0.0962 z m 1.67773,-2.89649 0.12903,0.0102 v -0.1656 -0.16562 l -0.9894,-0.58045 -0.98945,-0.58045 -1.11845,-0.40101 -1.11849,-0.40101 -1.89282,-0.47706 -1.892821,-0.47704 -1.828858,-0.30016 -1.82885,-0.30016 H 95.04376 94.472194 l 0.163467,0.16989 0.163463,0.16985 1.462635,0.22586 1.462627,0.22586 2.581124,0.57392 2.5811,0.57394 1.69634,0.65632 1.69631,0.65636 0.36857,0.28819 0.36854,0.28817 z"
         id="path3239"
         sodipodi:nodetypes="ccccccccccccccccccccccccccccccccccccccccccccccccccccccccccccccccccccccccccccccccccccccccccccccccccccccccccccccccccccccccccccccccccccccccccccccccccccccccccccccccccccccccccccccccccccccccccccccccccccccccccccccccccccccccccccccccccccccccccccccccccccccccccccccccccccccccccccccccccccccccccccccccccccccccccccccccccccccccccccccccccccccccccccccccccccccccccccccccccccccccccccccccccccccccccccccccccccccccccccccccccccccccccccccccccccccccccccccccccccccccccccccccccccccccccccccccccccccccccccccccccccccccccccccccccccccccccccccccccccccccccccccccccccccccccccccccccccccccccccccccccccccccccccccccccccccccccccccccccccccccccccccccccccccccccccccccccccccccccccccccccccccccccccccccccccccccccccccccccccccccccccccccccccccccccccccccccccccccccccccccccccccccccccccccccccccccccccccccccccccccccccccccccccccccccccccccccccccccccccccc" /></g></g></svg>
