<?xml version="1.0" encoding="UTF-8" standalone="no"?>
<svg
   viewBox="0 0 24 24"
   version="1.1"
   id="svg4"
   sodipodi:docname="file-document-plus-outline.svg"
   inkscape:export-filename="file-document-plus-outline.png"
   inkscape:export-xdpi="599.172"
   inkscape:export-ydpi="599.172"
   inkscape:version="1.2.2 (b0a8486541, 2022-12-01)"
   xmlns:inkscape="http://www.inkscape.org/namespaces/inkscape"
   xmlns:sodipodi="http://sodipodi.sourceforge.net/DTD/sodipodi-0.dtd"
   xmlns="http://www.w3.org/2000/svg"
   xmlns:svg="http://www.w3.org/2000/svg">
  <defs
     id="defs8" />
  <sodipodi:namedview
     id="namedview6"
     pagecolor="#ffffff"
     bordercolor="#666666"
     borderopacity="1.0"
     inkscape:showpageshadow="2"
     inkscape:pageopacity="0.0"
     inkscape:pagecheckerboard="0"
     inkscape:deskcolor="#d1d1d1"
     showgrid="false"
     inkscape:zoom="35.06856"
     inkscape:cx="4.6908114"
     inkscape:cy="10.707597"
     inkscape:window-width="2112"
     inkscape:window-height="1436"
     inkscape:window-x="1352"
     inkscape:window-y="380"
     inkscape:window-maximized="0"
     inkscape:current-layer="svg4" />
  <path
     d="M23 18H20V15H18V18H15V20H18V23H20V20H23M6 2C4.89 2 4 2.9 4 4V20C4 21.11 4.89 22 6 22H13.81C13.45 21.38 13.2 20.7 13.08 20H6V4H13V9H18V13.08C18.33 13.03 18.67 13 19 13C19.34 13 19.67 13.03 20 13.08V8L14 2M8 12V14H16V12M8 16V18H13V16Z"
     id="path2" />
</svg>
